<?xml version="1.0" encoding="UTF-8"?>
<svg id="katman_2" data-name="katman 2" xmlns="http://www.w3.org/2000/svg" viewBox="0 0 923.93 145.06">
  <defs>
    <style>
      .cls-1 {
        fill: #fff;
        stroke-width: 0px;
      }
    </style>
  </defs>
  <g id="katman_1" data-name="katman 1">
    <g>
      <g>
        <g>
          <path class="cls-1" d="M0,139.5L60.82,4.36h24.71l61.01,135.15h-26.26L67.96,17.68h10.04l-52.13,121.82H0ZM27.99,108.23l6.76-19.69h72.98l6.76,19.69H27.99Z"/>
          <path class="cls-1" d="M224.92,141.43c-10.56,0-20.24-1.71-29.06-5.12-8.82-3.41-16.51-8.24-23.07-14.48-6.56-6.24-11.65-13.61-15.25-22.11-3.6-8.5-5.41-17.76-5.41-27.8s1.8-19.31,5.41-27.8c3.6-8.5,8.72-15.86,15.35-22.11,6.63-6.24,14.38-11.07,23.26-14.48,8.88-3.41,18.6-5.12,29.15-5.12,11.46,0,21.78,1.87,30.99,5.6,9.2,3.73,16.96,9.2,23.26,16.41l-15.83,15.45c-5.28-5.28-10.97-9.17-17.09-11.68-6.11-2.51-12.84-3.76-20.17-3.76s-13.64,1.16-19.69,3.48c-6.05,2.32-11.26,5.6-15.64,9.85-4.38,4.25-7.76,9.27-10.14,15.06-2.38,5.79-3.57,12.16-3.57,19.11s1.19,13.13,3.57,18.92c2.38,5.79,5.76,10.85,10.14,15.16,4.37,4.31,9.52,7.63,15.45,9.94,5.92,2.32,12.48,3.47,19.69,3.47,6.69,0,13.16-1.06,19.4-3.19,6.24-2.12,12.19-5.7,17.86-10.71l14.29,18.73c-7.08,5.67-15.29,9.94-24.62,12.84-9.33,2.9-18.76,4.34-28.28,4.34ZM254.08,120.97v-50.58h23.75v53.87l-23.75-3.28Z"/>
          <path class="cls-1" d="M335.93,118.46h76.26v21.04h-101.36V4.36h98.66v21.04h-73.56v93.06ZM334,60.54h67.19v20.66h-67.19v-20.66Z"/>
          <path class="cls-1" d="M440.19,139.5V4.36h20.66l84.76,104.06h-10.23V4.36h24.91v135.15h-20.66l-84.76-104.06h10.23v104.06h-24.9Z"/>
          <path class="cls-1" d="M845.93,139.5v-53.48l5.6,15.45-58.69-97.11h26.84l47.11,78.19h-15.06l47.5-78.19h24.71l-58.69,97.11,5.79-15.45v53.48h-25.1Z"/>
        </g>
        <g>
          <polygon class="cls-1" points="595.57 125.41 584.48 110.24 709.61 18.79 590.02 18.79 590.02 0 767.18 0 595.57 125.41"/>
          <polygon class="cls-1" points="586.02 145.06 756.35 17.92 767.6 32.98 643.39 125.68 762.97 124.48 763.16 143.27 586.02 145.06"/>
        </g>
      </g>
      <g>
        <g>
          <path class="cls-1" d="M0,139.5L60.82,4.36h24.71l61.01,135.15h-26.26L67.96,17.68h10.04l-52.13,121.82H0ZM27.99,108.23l6.76-19.69h72.98l6.76,19.69H27.99Z"/>
          <path class="cls-1" d="M224.92,141.43c-10.56,0-20.24-1.71-29.06-5.12-8.82-3.41-16.51-8.24-23.07-14.48-6.56-6.24-11.65-13.61-15.25-22.11-3.6-8.5-5.41-17.76-5.41-27.8s1.8-19.31,5.41-27.8c3.6-8.5,8.72-15.86,15.35-22.11,6.63-6.24,14.38-11.07,23.26-14.48,8.88-3.41,18.6-5.12,29.15-5.12,11.46,0,21.78,1.87,30.99,5.6,9.2,3.73,16.96,9.2,23.26,16.41l-15.83,15.45c-5.28-5.28-10.97-9.17-17.09-11.68-6.11-2.51-12.84-3.76-20.17-3.76s-13.64,1.16-19.69,3.48c-6.05,2.32-11.26,5.6-15.64,9.85-4.38,4.25-7.76,9.27-10.14,15.06-2.38,5.79-3.57,12.16-3.57,19.11s1.19,13.13,3.57,18.92c2.38,5.79,5.76,10.85,10.14,15.16,4.37,4.31,9.52,7.63,15.45,9.94,5.92,2.32,12.48,3.47,19.69,3.47,6.69,0,13.16-1.06,19.4-3.19,6.24-2.12,12.19-5.7,17.86-10.71l14.29,18.73c-7.08,5.67-15.29,9.94-24.62,12.84-9.33,2.9-18.76,4.34-28.28,4.34ZM254.08,120.97v-50.58h23.75v53.87l-23.75-3.28Z"/>
          <path class="cls-1" d="M335.93,118.46h76.26v21.04h-101.36V4.36h98.66v21.04h-73.56v93.06ZM334,60.54h67.19v20.66h-67.19v-20.66Z"/>
          <path class="cls-1" d="M440.19,139.5V4.36h20.66l84.76,104.06h-10.23V4.36h24.91v135.15h-20.66l-84.76-104.06h10.23v104.06h-24.9Z"/>
          <path class="cls-1" d="M845.93,139.5v-53.48l5.6,15.45-58.69-97.11h26.84l47.11,78.19h-15.06l47.5-78.19h24.71l-58.69,97.11,5.79-15.45v53.48h-25.1Z"/>
        </g>
        <g>
          <polygon class="cls-1" points="595.57 125.41 584.48 110.24 709.61 18.79 590.02 18.79 590.02 0 767.18 0 595.57 125.41"/>
          <polygon class="cls-1" points="586.02 145.06 756.35 17.92 767.6 32.98 643.39 125.68 762.97 124.48 763.16 143.27 586.02 145.06"/>
        </g>
      </g>
    </g>
  </g>
</svg>